<?xml version="1.0" standalone="no"?>
<!DOCTYPE svg PUBLIC "-//W3C//DTD SVG 20010904//EN"
 "http://www.w3.org/TR/2001/REC-SVG-20010904/DTD/svg10.dtd">
<svg version="1.0" xmlns="http://www.w3.org/2000/svg"
 width="1080.000000pt" height="1080.000000pt" viewBox="0 0 1080.000000 1080.000000"
 preserveAspectRatio="xMidYMid meet">

<g transform="translate(0.000000,1080.000000) scale(0.100000,-0.100000)"
fill="#000000" stroke="none">
<path d="M5910 10570 c-184 -39 -390 -141 -426 -212 -13 -24 -12 -29 5 -45 11
-10 49 -34 85 -53 36 -19 66 -38 66 -41 0 -3 -75 -9 -167 -13 -593 -23 -1562
-117 -2037 -197 -553 -92 -774 -170 -1076 -377 -934 -640 -1655 -2200 -1849
-4002 -36 -329 -45 -518 -45 -895 0 -359 8 -516 40 -810 77 -701 256 -1322
525 -1818 545 -1005 1594 -1656 2959 -1836 278 -37 420 -45 750 -45 379 0 552
12 925 65 879 125 1796 469 2510 943 962 637 1617 1487 1909 2479 177 599 251
1094 251 1667 -2 1216 -427 2346 -1227 3258 -208 236 -556 551 -800 723 -57
40 -137 100 -178 134 -89 74 -289 211 -414 284 -113 67 -446 233 -630 316
-383 171 -677 315 -846 412 -155 89 -183 95 -330 63z m-431 -954 c310 -64 526
-155 1141 -482 l225 -119 90 0 c100 0 177 20 324 83 l84 36 61 -32 c466 -242
805 -451 971 -598 144 -128 225 -210 374 -378 63 -71 226 -294 287 -393 309
-497 491 -1034 560 -1653 18 -166 27 -635 14 -780 -23 -262 -33 -343 -66 -530
-261 -1498 -1198 -2847 -2379 -3425 -337 -164 -653 -261 -1090 -334 -495 -82
-1074 -95 -1610 -35 -1011 113 -1887 469 -2436 991 -251 240 -422 504 -579
898 -164 412 -262 862 -322 1475 -18 184 -18 982 0 1185 56 636 168 1191 345
1710 285 833 704 1442 1224 1779 198 128 625 300 1048 422 525 152 953 216
1400 209 178 -3 229 -7 334 -29z"/>
<path d="M3513 6805 c-96 -17 -151 -45 -206 -104 -82 -88 -118 -189 -119 -336
-2 -370 283 -583 634 -475 195 60 297 289 243 545 -41 196 -182 340 -364 375
-67 12 -97 12 -188 -5z"/>
<path d="M6812 6740 c-191 -50 -302 -164 -333 -340 -28 -163 31 -359 144 -473
89 -91 151 -118 269 -118 308 0 550 310 473 606 -44 169 -190 309 -351 335
-82 14 -118 12 -202 -10z"/>
<path d="M2545 5091 c-62 -26 -75 -91 -56 -287 43 -442 235 -828 570 -1146
444 -422 1073 -698 1825 -799 217 -29 625 -37 846 -15 598 57 1083 229 1470
522 254 191 430 404 560 677 94 196 159 419 176 605 6 66 6 69 -21 90 -57 45
-113 18 -192 -91 -121 -168 -327 -385 -483 -511 -274 -219 -631 -407 -956
-501 -136 -40 -284 -72 -444 -97 -127 -19 -184 -22 -460 -23 -251 0 -342 4
-450 18 -431 59 -775 161 -1145 341 -426 208 -745 474 -925 771 -56 93 -87
165 -130 298 -38 118 -70 157 -127 156 -21 0 -47 -4 -58 -8z"/>
</g>
</svg>
