<svg xmlns="http://www.w3.org/2000/svg" enable-background="new 0 0 60 60" viewBox="0 0 60 60"><path fill="#fff" d="M50,60H10C4.477,60,0,55.523,0,50V10C0,4.477,4.477,0,10,0h40c5.523,0,10,4.477,10,10v40
		C60,55.523,55.523,60,50,60z"/><path fill="#827399" d="M26 49.002c-6.045 0-12.174-.682-18.217-2.026-.359-.08-.646-.351-.746-.706-.587-2.09-1.072-4.24-1.442-6.391-.094-.544.271-1.062.815-1.155.545-.099 1.062.271 1.155.815.325 1.886.741 3.771 1.238 5.612 11.421 2.455 22.972 2.455 34.393 0 .498-1.841.914-3.726 1.238-5.612.093-.544.605-.915 1.155-.815.544.094.909.611.815 1.155-.37 2.151-.855 4.301-1.442 6.391-.1.354-.386.625-.746.706C38.174 48.321 32.045 49.002 26 49.002zM45.419 21.29c-.478 0-.901-.343-.984-.83-.325-1.886-.741-3.771-1.238-5.612-2.311-.497-4.646-.898-6.952-1.194-.547-.07-.935-.571-.864-1.119.07-.548.569-.94 1.119-.864 2.56.328 5.157.784 7.718 1.353.359.08.646.351.746.706.587 2.09 1.072 4.24 1.442 6.391.094.544-.271 1.062-.815 1.155C45.532 21.286 45.475 21.29 45.419 21.29zM6.581 21.29c-.056 0-.113-.004-.171-.015-.544-.094-.909-.611-.815-1.155.37-2.151.855-4.301 1.442-6.391.1-.354.386-.625.746-.706 8.188-1.822 16.485-2.418 24.69-1.771.551.043.962.525.918 1.076-.043.551-.522.957-1.076.918-7.812-.617-15.705-.078-23.512 1.6-.498 1.841-.914 3.726-1.238 5.612C7.482 20.947 7.059 21.29 6.581 21.29z"/><path fill="#827399" d="M55.999,46c-0.15,0-0.303-0.034-0.446-0.105l-49.42-24.71c-0.494-0.247-0.694-0.848-0.447-1.342
		c0.247-0.494,0.847-0.694,1.342-0.447l49.42,24.71c0.494,0.247,0.694,0.848,0.447,1.342C56.719,45.798,56.366,46,55.999,46z"/><path fill="#827399" d="M6.581,40.71c-0.367,0-0.72-0.202-0.896-0.553c-0.247-0.494-0.047-1.095,0.447-1.342l49.42-24.71
		c0.496-0.247,1.095-0.046,1.342,0.447c0.247,0.494,0.047,1.095-0.447,1.342l-49.42,24.71C6.884,40.676,6.731,40.71,6.581,40.71z"/><path fill="#c3b5de" d="M9.953 18.623c.146-.693.304-1.383.475-2.069 5.18-1.033 10.41-1.556 15.572-1.556s10.392.523 15.572 1.556c.17.686.329 1.376.475 2.069L26 26.646 9.953 18.623zM26 45.002c-5.163 0-10.392-.523-15.572-1.556-.17-.686-.329-1.376-.475-2.069L26 33.354l16.047 8.023c-.146.693-.304 1.383-.475 2.069C36.392 44.479 31.163 45.002 26 45.002z"/></svg>