<?xml version="1.0" standalone="no"?>
<!DOCTYPE svg PUBLIC "-//W3C//DTD SVG 20010904//EN"
 "http://www.w3.org/TR/2001/REC-SVG-20010904/DTD/svg10.dtd">
<svg version="1.0" xmlns="http://www.w3.org/2000/svg"
 width="250.000000pt" height="250.000000pt" viewBox="0 0 250.000000 250.000000"
 preserveAspectRatio="xMidYMid meet">

<g transform="translate(0.000000,250.000000) scale(0.100000,-0.100000)"
fill="#000000" stroke="none">
<path d="M489 2058 c5 -13 59 -139 120 -281 l110 -257 -115 -538 c-63 -295
-118 -547 -121 -560 l-5 -23 122 3 122 3 221 577 c122 317 223 576 224 574 3
-3 -178 -1008 -203 -1129 l-6 -28 122 3 122 3 214 620 c117 341 213 615 214
609 0 -6 -43 -284 -95 -618 -52 -334 -95 -610 -95 -612 0 -3 54 -3 121 -2
l121 3 219 695 c168 536 215 698 206 706 -7 6 -105 71 -220 143 l-207 132
-120 -3 -119 -3 50 -90 c28 -49 71 -128 97 -175 l46 -85 -55 46 c-30 25 -127
104 -216 177 l-161 132 -121 0 -121 0 106 -212 c70 -139 99 -207 86 -197 -12
8 -113 103 -225 212 l-204 197 -121 0 -122 0 9 -22z"/>
</g>
</svg>
