<?xml version="1.0" standalone="no"?>
<!DOCTYPE svg PUBLIC "-//W3C//DTD SVG 20010904//EN"
 "http://www.w3.org/TR/2001/REC-SVG-20010904/DTD/svg10.dtd">
<svg version="1.0" xmlns="http://www.w3.org/2000/svg"
 width="280.000000pt" height="280.000000pt" viewBox="0 0 280.000000 280.000000"
 preserveAspectRatio="xMidYMid meet">

<g transform="translate(0.000000,280.000000) scale(0.100000,-0.100000)"
fill="#000000" stroke="none">
<path d="M845 2149 c-196 -29 -381 -137 -495 -288 -157 -206 -199 -455 -118
-698 82 -249 283 -433 545 -500 61 -16 127 -18 618 -18 493 0 558 2 626 18
258 60 462 248 549 503 32 93 34 107 34 234 0 127 -2 141 -34 234 -84 249
-274 428 -529 499 -73 20 -99 21 -606 23 -291 1 -557 -2 -590 -7z m1160 -164
c198 -52 366 -213 428 -410 30 -98 30 -252 0 -350 -62 -196 -231 -358 -428
-410 -88 -23 -1122 -23 -1210 0 -195 51 -366 214 -425 404 -46 148 -33 308 36
451 49 99 170 222 265 268 126 61 122 61 724 61 466 1 560 -1 610 -14z"/>
<path d="M826 1680 c-111 -44 -179 -151 -179 -280 0 -96 27 -163 92 -223 63
-59 129 -81 230 -75 174 10 275 120 275 298 0 129 -45 210 -146 265 -71 39
-196 46 -272 15z m238 -110 c47 -32 86 -109 86 -170 0 -61 -39 -138 -87 -170
-32 -22 -48 -25 -119 -25 -77 0 -85 2 -121 31 -48 39 -71 79 -79 135 -12 87
33 175 108 213 51 26 164 18 212 -14z"/>
<path d="M1292 1688 c-7 -7 -12 -19 -12 -27 0 -19 189 -533 202 -548 14 -17
43 -16 60 1 8 8 43 92 78 187 35 96 67 185 73 199 8 22 18 -1 83 -174 40 -109
79 -205 85 -212 16 -20 57 -17 68 4 28 54 200 543 195 556 -9 24 -53 32 -71
14 -8 -9 -48 -105 -88 -214 -41 -110 -76 -192 -79 -184 -3 8 -37 100 -75 204
-39 104 -76 193 -83 197 -19 13 -44 11 -56 -4 -6 -7 -40 -92 -76 -188 -35 -95
-68 -185 -73 -198 -8 -21 -20 4 -83 175 -40 109 -78 205 -83 212 -12 15 -49
16 -65 0z"/>
</g>
</svg>
